<svg xmlns="http://www.w3.org/2000/svg" viewBox="0 0 1592.47 89.78">
    <defs>
        <style>
            .cls-1,
            .cls-2 {
                fill: #fff;
            }

            .cls-2 {
                opacity: 0.19;
            }
        </style>
    </defs>
    <g>
        <g>
            <path class="cls-1"
                d="M801.73,89.78a16.19,16.19,0,0,0-25-15.75A20.13,20.13,0,0,0,758.1,61.64c-.29,0-.56,0-.85,0A26.5,26.5,0,0,0,717.37,46,30.11,30.11,0,0,0,678.3,33.86a33.87,33.87,0,0,0-38-19.06A45.8,45.8,0,0,0,568.12,21a26.89,26.89,0,0,0-34.88,14,20.08,20.08,0,0,0-2.28-.14,19.88,19.88,0,0,0-15.21,7.06A33.58,33.58,0,0,0,468,44.62,22.49,22.49,0,0,0,432.81,52a16,16,0,0,0-21.37,9.69,23.73,23.73,0,0,0-21.71,28.07Z" />
            <path class="cls-1"
                d="M416.6,89.78A18.88,18.88,0,0,0,396,64.21a17.93,17.93,0,0,0-19.26-7.79A25.63,25.63,0,0,0,349,41.33,37.45,37.45,0,0,0,287.51,34a22.23,22.23,0,0,0-14.65,2.35,28.27,28.27,0,0,0-21.68-10.1,28.55,28.55,0,0,0-4,.29,29.31,29.31,0,0,0-48,8.35,25.39,25.39,0,0,0-25.62,4.35,23.52,23.52,0,0,0-28.74,13.41,21.52,21.52,0,0,0-11.08,3.9,21.65,21.65,0,0,0-19-3.36,25.68,25.68,0,0,0-44.33.23,21,21,0,0,0-16.57,3.67,25.84,25.84,0,0,0-36.33,6.53A19.36,19.36,0,0,0,1.26,89.78Z" />
            <path class="cls-1"
                d="M604.64,89.78a16.19,16.19,0,0,1,25-15.75,20.13,20.13,0,0,1,18.59-12.39c.29,0,.56,0,.85,0A26.5,26.5,0,0,1,689,46a30.11,30.11,0,0,1,39.07-12.13A33.87,33.87,0,0,1,766,14.8,45.8,45.8,0,0,1,838.25,21a26.89,26.89,0,0,1,34.88,14,20.08,20.08,0,0,1,2.28-.14,19.88,19.88,0,0,1,15.21,7.06,33.58,33.58,0,0,1,47.8,2.71A22.49,22.49,0,0,1,973.56,52a16,16,0,0,1,21.37,9.69,23.73,23.73,0,0,1,21.71,28.07Z" />
            <path class="cls-1"
                d="M937.11,89.78a18.88,18.88,0,0,1,20.58-25.58,17.93,17.93,0,0,1,19.26-7.79,25.63,25.63,0,0,1,27.76-15.09A37.45,37.45,0,0,1,1066.2,34a22.23,22.23,0,0,1,14.65,2.35,28.27,28.27,0,0,1,21.68-10.1,28.55,28.55,0,0,1,4,.29,29.31,29.31,0,0,1,48,8.35,25.39,25.39,0,0,1,25.62,4.35,23.52,23.52,0,0,1,28.74,13.41,21.52,21.52,0,0,1,11.08,3.9,21.65,21.65,0,0,1,19-3.36,25.68,25.68,0,0,1,44.33.23,21,21,0,0,1,16.57,3.67,25.84,25.84,0,0,1,36.33,6.53,19.36,19.36,0,0,1,16.17,26.14Z" />
            <path class="cls-2"
                d="M496.24,67.16a16.44,16.44,0,0,0-15.67-16.1,20.64,20.64,0,0,0-35.28-5,11.5,11.5,0,0,0-12,1.92,14.46,14.46,0,0,0-11.18-5.28c-.41,0-.81,0-1.21.05a17.72,17.72,0,0,0-24.95-9.65A17.25,17.25,0,0,0,375.17,38a13.82,13.82,0,0,0-8.56-.12,23.23,23.23,0,0,0-29.85-7.45,25.19,25.19,0,0,0-42.82-1.94,12.36,12.36,0,0,0-15.84,11h0a21.33,21.33,0,0,0-20.35,27.68Z" />
            <path class="cls-2"
                d="M1029,53.64a16.44,16.44,0,0,0-15.67-16.1,20.64,20.64,0,0,0-35.28-5,11.5,11.5,0,0,0-12,1.92,14.46,14.46,0,0,0-11.18-5.28c-.41,0-.81,0-1.21.05a17.72,17.72,0,0,0-24.95-9.65A17.25,17.25,0,0,0,908,24.48a13.82,13.82,0,0,0-8.56-.12,23.23,23.23,0,0,0-29.85-7.45A25.19,25.19,0,0,0,826.76,15a12.36,12.36,0,0,0-15.84,11h0a21.33,21.33,0,0,0-20.35,27.68Z" />
            <path class="cls-1"
                d="M1175.88,89.78a18.88,18.88,0,0,1,20.58-25.58,17.93,17.93,0,0,1,19.26-7.79,25.63,25.63,0,0,1,27.76-15.09A37.45,37.45,0,0,1,1305,34a22.23,22.23,0,0,1,14.65,2.35,28.27,28.27,0,0,1,21.68-10.1,28.55,28.55,0,0,1,4,.29,29.31,29.31,0,0,1,48,8.35A25.39,25.39,0,0,1,1419,39.27a23.52,23.52,0,0,1,28.74,13.41,21.52,21.52,0,0,1,11.08,3.9,21.65,21.65,0,0,1,19-3.36,25.68,25.68,0,0,1,44.33.23,21,21,0,0,1,16.57,3.67A25.84,25.84,0,0,1,1575,63.65a19.36,19.36,0,0,1,16.17,26.14Z" />
            <path class="cls-2"
                d="M1384.25,54.64a16.44,16.44,0,0,0-15.67-16.1,20.64,20.64,0,0,0-35.28-5,11.5,11.5,0,0,0-12,1.92,14.46,14.46,0,0,0-11.18-5.28c-.41,0-.81,0-1.21.05a17.72,17.72,0,0,0-24.95-9.65,17.25,17.25,0,0,0-20.75,4.93,13.82,13.82,0,0,0-8.56-.12,23.23,23.23,0,0,0-29.85-7.45A25.19,25.19,0,0,0,1182,16a12.36,12.36,0,0,0-15.84,11h0a21.33,21.33,0,0,0-20.35,27.68Z" />
        </g>
    </g>
</svg>