<svg id="Слой_1" data-name="Слой 1" xmlns="http://www.w3.org/2000/svg" viewBox="0 0 841.89 285.5"><defs><style>.cls-1{fill:#fff;}</style></defs><title>Монтажная область 1 копия</title><path class="cls-1" d="M.33,55.51H249V53.94H.33Zm0,76.58H842.22v-1.57H.33Zm593-76.58H842.22V53.94H593.29Zm-276.93-21H525V33.08H316.36Zm0-14.56H525l4.92-6V11.3H312v2.63Zm0,2.2H328.5V31H316.36ZM572.31,51.43H525V42.77H576.4v2.65Zm-52.77,55.5h-6.71V117.5h6.71Zm0-15.34h-6.71v10.58h6.71Zm0-15.34h-6.71V86.83h6.71Zm0-15.34h-6.71V71.49h6.71Zm0-14h-6.75v9.2h6.75Zm12.1,60H525V117.5h6.71Zm0-15.34H525v10.58h6.71Zm0-15.34H525V86.83h6.71Zm0-15.34H525V71.49h6.71Zm12.14,46h-6.71V117.5h6.71Zm0-15.34h-6.71v10.58h6.71Zm0-15.34h-6.71V86.83h6.71Zm0-15.34h-6.71V71.49h6.71Zm12.14,46h-6.71V117.5H556Zm0-15.34h-6.71v10.58H556Zm0-15.34h-6.71V86.83H556Zm0-15.34h-6.71V71.49H556Zm12.14,46h-6.71V117.5h6.71Zm0-15.34h-6.71v10.58h6.71Zm0-15.34h-6.71V86.83h6.71Zm0-15.34h-6.71V71.49h6.71Zm-246.31,46h6.71V117.5h-6.71Zm0-15.34h6.71v10.58h-6.71Zm0-15.34h6.71V86.83h-6.71Zm0-15.34h6.71V71.49h-6.71Zm0-14h6.75v9.2h-6.75Zm-12.1,60h6.71V117.5h-6.71Zm0-15.34h6.71v10.58h-6.71Zm0-15.34h6.71V86.83h-6.71Zm0-15.34h6.71V71.49h-6.71Zm-12.13,46h6.7V117.5h-6.7Zm0-15.34h6.7v10.58h-6.7Zm0-15.34h6.7V86.83h-6.7Zm0-15.34h6.7V71.49h-6.7Zm-12.15,46h6.72V117.5h-6.72Zm0-15.34h6.72v10.58h-6.72Zm0-15.34h6.72V86.83h-6.72Zm0-15.34h6.72V71.49h-6.72Zm-12.13,46H280V117.5h-6.71Zm0-15.34H280v10.58h-6.71Zm0-15.34H280V86.83h-6.71Zm0-15.34H280V71.49h-6.71ZM269,51.43h47.39V42.77H264.89v2.65ZM512.83,22.21H525V31H512.83ZM400.44,82.6v24.75c0,2.73.18,4.47.53,5.23s1.14,1.15,2.39,1.15h.57a7.82,7.82,0,0,0,7.18-3.79q2.31-3.78,2.31-11.74,0-7.68-2.31-11.65a7.43,7.43,0,0,0-6.78-4Zm0-28.59V77.32h3.94c2.53,0,4.53-1.34,6-4s2.2-6.31,2.2-10.89-.73-8.24-2.2-10.92-3.47-4-6-4h-1A2.39,2.39,0,0,0,401,48.76,15.76,15.76,0,0,0,400.44,54ZM328.5,39.81H512.83v2.94h12.36l1.33-3.28V38.24H314.81v1.23l1.33,3.28H328.5Zm45.25,77.7h-5v-1.64c-2-.26-3.23-1-3.76-2.16s-.8-3.83-.8-8v-20l1.28-2.42,10.07,24.45c1.21,2.92,1.69,5,1.42,6.25s-1.32,1.88-3.17,1.88Zm44.18-94.39h5.27v6.63h-5.27Zm-73.74,7.8H343V22.23h1.21Zm137.68,0h-1.21V22.21h1.21ZM464.6,31h-1.21V22.21h1.21Zm-17.49,0H445.9V22.21h1.21ZM430.4,31h-1.21V22.21h1.21Zm-18.51,0h-1.21V22.21h1.21Zm-17.38,0h-1.22V22.21h1.22Zm-17.16,0h-1.21V22.21h1.21Zm-17.83,0H358.3V22.21h1.22Zm138.8,0h-1.09V22.22h1.09ZM269.1,121.06h303v-1.21h-303Zm-2.65,2.6h308.3v-1.22H266.45Zm-2.83,2.6h314V125h-314Zm-3.36,2.6H580.94v-1.21H260.26ZM329.15,9.08h184l1.94-3.36V3.9H326.77V5.71ZM772.06,244.84h0l-9.41-21a20.07,20.07,0,0,0-2.42-4.28,3.75,3.75,0,0,0-2.49-1.12h-.28v-1.81h14.31v1.81h-1.42c-1.16.1-1.84.48-2.05,1.13a5.2,5.2,0,0,0,.66,3.18L776.45,240h0l6.47-14.07c1.16-2.5,1.59-4.3,1.27-5.44s-1.43-1.8-3.35-2v-1.81h11.08v1.81a5.39,5.39,0,0,0-3,1.6,24.56,24.56,0,0,0-2.84,5.14l-8.63,18.56v12.07c0,3.92.27,6.42.8,7.52s1.78,1.74,3.75,1.91v1.8H767.52v-1.8c2-.17,3.22-.81,3.75-1.91s.79-3.6.79-7.52Zm-83.1,11v-36h-3.83a5.26,5.26,0,0,0-4.69,2.23q-1.52,2.22-2,7.7h-1.29l.21-6.57.22-6.59h28.24l.21,6.57.21,6.59h-1.28q-.52-5.48-2-7.7a5.27,5.27,0,0,0-4.69-2.23h-3.84v36q0,5.84.89,7.48c.58,1.11,2,1.75,4.18,1.95v1.8H683.89v-1.8c2.21-.2,3.6-.84,4.2-2S689,259.72,689,255.83Zm-72.83,0V227.89c0-3.93-.26-6.42-.79-7.53s-1.78-1.73-3.75-1.9v-1.81h14.48v1.81c-2,.17-3.22.8-3.75,1.9s-.79,3.6-.79,7.53v27.94c0,3.92.26,6.42.79,7.52s1.78,1.74,3.75,1.91v1.8H611.59v-1.8q3-.25,3.75-1.92T616.13,255.83Zm-58.86-24.07a21.56,21.56,0,0,0-3.38-9.32c-1.68-2.39-3.6-3.58-5.73-3.58A4,4,0,0,0,544.6,221a11,11,0,0,0-1.31,5.75,9.72,9.72,0,0,0,1.47,5.08,21,21,0,0,0,4.68,5.07c3.77,3.14,6.36,5.93,7.8,8.4a16.81,16.81,0,0,1,2.16,8.63q0,6.53-3.07,10.34a10.05,10.05,0,0,1-8.29,3.83A8.88,8.88,0,0,1,542.5,266c-.75-.6-1.37-.8-1.88-.6s-.89.8-1.15,1.79l-.18.66h-1.24l-1.41-16.38h1.23a23.25,23.25,0,0,0,4,9.66c1.9,2.5,3.94,3.75,6.15,3.75a5.25,5.25,0,0,0,4.56-2.49,11.72,11.72,0,0,0,1.69-6.71,9.67,9.67,0,0,0-1.81-5.4,30.91,30.91,0,0,0-5.86-6.06,28.47,28.47,0,0,1-6.5-7.28,14.92,14.92,0,0,1-2.11-7.54,17.38,17.38,0,0,1,2.58-9.89,7.77,7.77,0,0,1,6.66-3.85A10,10,0,0,1,553,217.7a1.6,1.6,0,0,0,1.65.28,2,2,0,0,0,1.2-1.37l.36-1h1.24l1,16.13Zm-93.84,9.29h3.34a6.75,6.75,0,0,0,5.89-2.85c1.34-1.89,2-4.68,2-8.35a11.4,11.4,0,0,0-2.12-7.29,7,7,0,0,0-5.78-2.68h-.39c-1.22,0-2,.27-2.39.82a7,7,0,0,0-.56,3.49ZM458,255.83V227.89c0-3.9-.26-6.39-.79-7.49s-1.78-1.75-3.75-1.94v-1.81h13.28q6.84,0,10.39,3.5t3.55,10.23q0,6.47-3.71,10.09a13,13,0,0,1-4.91,2.93l8.64,16.45a19.71,19.71,0,0,0,2.77,4.28,4.71,4.71,0,0,0,2.84,1.13v1.8H477.7l-11.86-23h-2.41v14.42q0,4.14.79,5.31c.52.79,1.78,1.27,3.75,1.44v1.8H453.49v-1.8c2-.2,3.22-.84,3.75-2S458,259.72,458,255.83Zm-84.79,11.23v-1.8c2-.17,3.22-.81,3.74-1.91s.8-3.6.8-7.52V227.89c0-3.93-.26-6.42-.8-7.53s-1.78-1.73-3.74-1.9v-1.81h27l.15,5.55.17,5.58h-1.24q-.42-4.35-1.82-6.12a5.31,5.31,0,0,0-4.44-1.78h-6.9c-1.23,0-2,.27-2.4.82a7.08,7.08,0,0,0-.56,3.49v15.32h7.65c2,0,3.44-.52,4.27-1.56s1.24-2.85,1.24-5.4h1.24V249.7h-1.24c0-2.55-.41-4.36-1.24-5.4s-2.25-1.56-4.27-1.56h-7.65v16.85a7.19,7.19,0,0,0,.53,3.48c.34.5,1.13.76,2.38.76h5.31a8.54,8.54,0,0,0,6.15-2.19c1.55-1.46,2.91-4,4.11-7.52H403l-1.36,6.46-1.39,6.48h-27Zm-81.16-43.2a14.63,14.63,0,0,0-1.76-4.28,3.63,3.63,0,0,0-2.62-1.12v-1.81h13.55v1.81c-1.78,0-2.93.42-3.45,1.25s-.49,2.21.09,4.15l9.21,31.44h0l7.58-29.41c.64-2.51.74-4.34.27-5.49s-1.56-1.8-3.3-1.94v-1.81h10.28v1.81a4.14,4.14,0,0,0-2.59,1.6,21.78,21.78,0,0,0-1.87,5.14l-11.33,43h-.94Zm-64.93,32V227.89c0-3.93-.27-6.42-.8-7.53s-1.78-1.73-3.75-1.9v-1.81h14.48v1.81c-2,.17-3.22.8-3.74,1.9s-.8,3.6-.8,7.53v27.94c0,3.92.26,6.42.8,7.52s1.77,1.74,3.74,1.91v1.8H222.6v-1.8c2-.17,3.23-.81,3.75-1.92S227.15,259.75,227.15,255.83Zm-82.88-1.37c0,4.59.27,7.52.8,8.77s1.78,1.93,3.75,2v1.8H137.19v-1.8c2-.1,3.23-.78,3.75-2s.8-4.18.8-8.77V222.37a12.39,12.39,0,0,0-1.94-2.79,4.84,4.84,0,0,0-2.93-1.12v-1.81h8.74l19.12,35.8v-23.2c0-4.58-.26-7.51-.79-8.77s-1.78-1.92-3.75-2v-1.81h11.62v1.81c-2,.1-3.22.77-3.75,2s-.79,4.19-.79,8.77v39h-.94l-22.06-41.29Zm-63.42-6.65q0,10.56-3.07,15.41c-2,3.23-5.31,4.86-9.77,4.86s-7.56-1.67-9.67-5-3.17-8.43-3.19-15.27V227.89c0-3.93-.26-6.42-.79-7.53s-1.78-1.73-3.75-1.9v-1.81H65.09v1.81q-3,.28-3.75,1.47t-.8,5.27V249q0,8.42,2,12.13a6.87,6.87,0,0,0,6.55,3.71,7.51,7.51,0,0,0,6.92-4c1.54-2.63,2.31-6.61,2.31-11.89V229.25c0-4.7-.27-7.69-.8-8.95s-1.78-1.87-3.75-1.84v-1.81H85.39v1.81c-2,.1-3.22.77-3.74,2s-.8,4.19-.8,8.77ZM.56,276.35H842.19V206.93H.56ZM498.32,39.81v77.7H478.46a14.52,14.52,0,0,0,3.2-4.92q3.18-7.53,3.2-23v-30c0-5.89.26-9.65.8-11.31a4.12,4.12,0,0,1,3.76-2.87V42.77H474.88v2.71c2,.3,3.24,1,3.77,2.22s.8,3.81.8,7.93V91.44q0,12.65-2,18.23c-.88,2.45-2.12,4.09-3.74,4.93a5.94,5.94,0,0,1-2.11.62l-.63,0h-.09a8,8,0,0,1-1.06-.05c-2.65-.29-4.58-2.13-5.8-5.54q-2-5.58-2-18.23V55.63c0-4.12.26-6.76.8-7.93s1.79-1.92,3.76-2.22V42.77H452v2.71a4.13,4.13,0,0,1,3.76,2.87c.54,1.66.8,5.42.8,11.31v30q0,15.45,3.2,23a14.65,14.65,0,0,0,3.19,4.92H443.19v-1.64c-2.21-.3-3.62-1.27-4.21-2.94s-.88-5.37-.88-11.23V47.63H442q3.18,0,4.71,3.34c1,2.23,1.69,6.11,2,11.6H450l-.21-9.88-.22-9.92H421.22L421,52.65l-.22,9.92h1.3c.35-5.49,1-9.37,2-11.6s2.59-3.34,4.71-3.34h3.85V101.7c0,5.86-.3,9.59-.88,11.25s-2,2.62-4.21,2.92v1.64H410.78a11,11,0,0,0,5.13-3.72q3.57-4.8,3.57-16c0-6.14-1.41-11.17-4.24-15a14.91,14.91,0,0,0-2.84-3.06,11.32,11.32,0,0,0,1.63-2q3.74-5.44,3.73-14.7,0-9.93-3.53-15.06c-2.35-3.45-5.79-5.16-10.3-5.16H390.47v2.71a4.23,4.23,0,0,1,3.76,2.93c.53,1.65.8,5.39.8,11.25v42c0,5.86-.27,9.59-.8,11.23a4.22,4.22,0,0,1-3.76,2.94v1.64h-1.42v-1.64a4.31,4.31,0,0,1-2.95-1.69,36.72,36.72,0,0,1-3.23-6.44l-13.41-32,2.62-5.4q3.81-7.78,6.75-14.69a37.66,37.66,0,0,1,3.82-7.39,9.06,9.06,0,0,1,4.23-2.76V42.77H373.73v2.71c2.09.3,3.23,1.29,3.42,3s-.54,4.43-2.18,8.19c-1.43,3.22-3,6.62-4.71,10.17q-3.19,6.64-6.11,12V55.63c0-4.15.26-6.82.8-8s1.78-1.89,3.76-2.16V42.77H354.18v2.71a4.12,4.12,0,0,1,3.75,2.87c.54,1.66.8,5.42.8,11.31v42q0,8.83-.8,11.29a4.09,4.09,0,0,1-3.75,2.88v1.64H343V39.81"/><path class="cls-1" d="M823.47,184.69v-1.12a2.64,2.64,0,0,0,2.31-1.21,12.93,12.93,0,0,0,.5-4.64V160.41a12.93,12.93,0,0,0-.5-4.64,2.61,2.61,0,0,0-2.31-1.2v-1.12h9v1.12a2.63,2.63,0,0,0-2.32,1.2,13.26,13.26,0,0,0-.49,4.64V179a7,7,0,0,0,.38,3.09c.25.37,1,.56,2.11.56h2.29a6.09,6.09,0,0,0,4.18-1.36,10.84,10.84,0,0,0,2.64-4.66H842l-.84,4-.86,4H823.47Zm-95.92-24.33-3.3,11.79h6.62Zm-6.92,19,7.56-26.66h.72l7.78,27.49a8.29,8.29,0,0,0,1,2.65,2.32,2.32,0,0,0,1.63.7v1.12h-7.86v-1.12c.92,0,1.5-.26,1.75-.77a4,4,0,0,0-.14-2.58l-1.7-6.07h-7.74L722.35,179a5.9,5.9,0,0,0-.25,3.4,2.14,2.14,0,0,0,2,1.21v1.12h-6.4v-1.12a2.56,2.56,0,0,0,1.66-1A12.54,12.54,0,0,0,720.63,179.39Zm-87.28-.31a14.43,14.43,0,0,1-3.83,4.76,7.85,7.85,0,0,1-4.74,1.47q-4.57,0-7.51-4.54t-2.93-11.69q0-7.17,2.93-11.72t7.51-4.54a9.63,9.63,0,0,1,5.31,1.5.88.88,0,0,0,.95,0,1.68,1.68,0,0,0,.73-.93l.21-.61h.78l.21,10.31-.76.15a11.82,11.82,0,0,0-2.4-6.15,6,6,0,0,0-4.75-2.14q-3.21,0-5.1,3.8t-1.88,10.29q0,6.48,1.88,10.27c1.26,2.52,3,3.79,5.1,3.79a7,7,0,0,0,4.08-1.21,12.93,12.93,0,0,0,3.47-3.94ZM523.7,177.72V160.41a13.36,13.36,0,0,0-.49-4.66,2.6,2.6,0,0,0-2.33-1.18v-1.12h9v1.12a2.59,2.59,0,0,0-2.32,1.18,13.36,13.36,0,0,0-.49,4.66v17.31a13.43,13.43,0,0,0,.49,4.67,2.61,2.61,0,0,0,2.32,1.18v1.12h-9v-1.12c1.22-.11,2-.5,2.33-1.19A13.32,13.32,0,0,0,523.7,177.72Zm-103.86-.84a17.86,17.86,0,0,0,.49,5.43,2.37,2.37,0,0,0,2.32,1.26v1.12h-7.2v-1.12a2.37,2.37,0,0,0,2.32-1.26,17.79,17.79,0,0,0,.5-5.43V157a7.68,7.68,0,0,0-1.21-1.72,2.94,2.94,0,0,0-1.81-.7v-1.12h5.42l11.85,22.19V161.26a17.58,17.58,0,0,0-.5-5.44,2.36,2.36,0,0,0-2.32-1.25v-1.12h7.2v1.12a2.38,2.38,0,0,0-2.32,1.25,18,18,0,0,0-.49,5.44v24.15h-.59l-13.66-25.59ZM312,177.72V160.41a13.62,13.62,0,0,0-.49-4.66,2.6,2.6,0,0,0-2.33-1.18v-1.12h9v1.12a3.09,3.09,0,0,0-2.32.91,6.78,6.78,0,0,0-.49,3.26v9.35h9.19v-9.35a6.78,6.78,0,0,0-.49-3.26,3.09,3.09,0,0,0-2.32-.91v-1.12h9v1.12a2.56,2.56,0,0,0-2.32,1.18,13.28,13.28,0,0,0-.5,4.66v17.31a13.35,13.35,0,0,0,.5,4.67c.32.68,1.1,1.07,2.32,1.18v1.12h-9v-1.12c1.22-.13,2-.42,2.32-.92a6.78,6.78,0,0,0,.49-3.26v-9.3h-9.19v9.3a6.78,6.78,0,0,0,.49,3.26c.32.5,1.11.79,2.32.92v1.12h-9v-1.12c1.22-.11,2-.5,2.33-1.19A13.58,13.58,0,0,0,312,177.72Zm-87.47,1.36a14.45,14.45,0,0,1-3.84,4.76,7.85,7.85,0,0,1-4.74,1.47q-4.57,0-7.51-4.54t-2.93-11.69q0-7.17,2.93-11.72t7.51-4.54a9.6,9.6,0,0,1,5.31,1.5.88.88,0,0,0,1,0,1.68,1.68,0,0,0,.73-.93l.21-.61H224l.21,10.31-.75.15a11.91,11.91,0,0,0-2.41-6.15,6,6,0,0,0-4.75-2.14q-3.21,0-5.1,3.8t-1.88,10.29q0,6.48,1.88,10.27c1.26,2.52,3,3.79,5.1,3.79a7,7,0,0,0,4.08-1.21,13.07,13.07,0,0,0,3.48-3.94Zm-121.71,5.61v-1.12a2.62,2.62,0,0,0,2.33-1.18,13.43,13.43,0,0,0,.49-4.67V160.41a13.36,13.36,0,0,0-.49-4.66,2.6,2.6,0,0,0-2.33-1.18v-1.12h16.72l.09,3.44.11,3.46H119a7.42,7.42,0,0,0-1.13-3.8,3.31,3.31,0,0,0-2.75-1.1h-4.28a1.72,1.72,0,0,0-1.48.5,4.28,4.28,0,0,0-.35,2.17v9.49h4.74a3.19,3.19,0,0,0,2.64-1,5.46,5.46,0,0,0,.78-3.35h.76v10.63h-.76a5.46,5.46,0,0,0-.78-3.35,3.19,3.19,0,0,0-2.64-1H109v10.44a4.55,4.55,0,0,0,.32,2.15c.22.32.71.48,1.48.48h3.29a5.36,5.36,0,0,0,3.82-1.36,11.62,11.62,0,0,0,2.54-4.66h.81l-.84,4-.86,4H102.85Zm-95-7V155.45H5.48a3.28,3.28,0,0,0-2.91,1.38,10.91,10.91,0,0,0-1.26,4.77H.51l.13-4.07.14-4.08H18.27l.13,4.07.14,4.08h-.8a10.91,10.91,0,0,0-1.26-4.77,3.28,3.28,0,0,0-2.91-1.38H11.2v22.27c0,2.42.18,4,.54,4.64s1.23,1.08,2.6,1.21v1.12H4.72v-1.12c1.36-.13,2.23-.53,2.59-1.21S7.85,180.14,7.85,177.72Z"/><path class="cls-1" d="M218.41,106.5V78.55c0-3.92-.26-6.41-.79-7.52s-1.78-1.73-3.75-1.9V67.32h14.48v1.81c-2,.2-3.22.68-3.75,1.47s-.8,2.54-.8,5.27V91h14.84V75.87c0-2.73-.25-4.49-.79-5.27s-1.78-1.27-3.75-1.47V67.32h14.48v1.81c-2,.17-3.22.8-3.75,1.9s-.8,3.6-.8,7.52v28c0,3.92.27,6.42.8,7.52s1.79,1.74,3.75,1.91v1.81H234.1v-1.81c2-.2,3.23-.68,3.75-1.47s.79-2.54.79-5.28v-15H223.8v15q0,4.11.8,5.28c.53.79,1.78,1.27,3.75,1.47v1.81H213.87v-1.81c2-.17,3.22-.8,3.75-1.92s.79-3.59.79-7.51m-43.5,0V78.55c0-3.92-.27-6.41-.8-7.52s-1.78-1.73-3.75-1.9V67.32h14.48v1.81c-2,.17-3.21.65-3.74,1.43s-.8,2.55-.8,5.31V91.3q2.91-3.55,6.08-8c1.71-2.36,3.29-4.62,4.7-6.77q2.46-3.74,2.17-5.44c-.19-1.14-1.32-1.79-3.41-2V67.32h13.1v1.81A10.08,10.08,0,0,0,198.73,71a23.5,23.5,0,0,0-3.8,4.91q-3,4.59-6.73,9.77l-2.61,3.59,13.35,21.29a21.27,21.27,0,0,0,3.23,4.28,5.1,5.1,0,0,0,2.94,1.13v1.81H189.87v-1.81c1.84,0,2.88-.42,3.15-1.25s-.22-2.21-1.41-4.16l-10-16.25-1.28,1.61v13.3q0,4.14.8,5.32c.52.78,1.78,1.26,3.74,1.43v1.81H170.36v-1.81q3-.25,3.75-1.92T174.91,106.5Zm-32.81-28-5.35,19h10.7Zm-11.18,30.7,12.19-43h1.17l12.54,44.36a13.56,13.56,0,0,0,1.72,4.28,3.74,3.74,0,0,0,2.62,1.13v1.81H148.47v-1.81c1.49,0,2.43-.42,2.83-1.25s.31-2.21-.23-4.16l-2.74-9.78H135.84l-2.15,7.75c-.69,2.52-.84,4.34-.39,5.49s1.55,1.8,3.3,2v1.81H126.28v-1.81a4.24,4.24,0,0,0,2.67-1.64A21.41,21.41,0,0,0,130.92,109.18Zm-43.26,7.17,21.47-45.8H97a5.81,5.81,0,0,0-5,2.19q-1.6,2.19-2.12,7.52H88.58L89,73.8l.43-6.48H116V68.7L94.46,114.51h11.43c3,0,5.2-.77,6.7-2.31s2.61-4.17,3.3-8h1.17l-.54,6.74-.57,6.75H87.66v-1.39ZM59.08,78.48l-5.34,19h10.7Zm-11.17,30.7,12.19-43h1.17l12.54,44.36a13.56,13.56,0,0,0,1.72,4.28,3.74,3.74,0,0,0,2.62,1.13v1.81H65.46v-1.81c1.49,0,2.43-.42,2.83-1.25s.32-2.22-.23-4.16l-2.74-9.78H52.83l-2.15,7.75q-1.07,3.77-.39,5.49c.44,1.16,1.55,1.8,3.3,2v1.81H43.27v-1.81a4.2,4.2,0,0,0,2.67-1.64A20.79,20.79,0,0,0,47.91,109.18Zm764-2.69V78.54c0-3.92-.26-6.42-.79-7.52s-1.78-1.73-3.75-1.91v-1.8H821.8v1.8c-2,.2-3.22.69-3.75,1.48s-.79,2.53-.79,5.27V90.94H832.1V75.86c0-2.74-.26-4.49-.8-5.27s-1.78-1.28-3.74-1.48v-1.8H842v1.8c-2,.18-3.22.81-3.75,1.91s-.79,3.6-.79,7.52v27.95c0,3.92.26,6.42.79,7.52s1.78,1.73,3.75,1.9v1.81H827.56v-1.81c2-.19,3.22-.67,3.74-1.47s.8-2.53.8-5.27v-15H817.26v15c0,2.74.26,4.49.79,5.27s1.78,1.28,3.75,1.47v1.81H807.32v-1.81c2-.17,3.23-.8,3.75-1.91S811.86,110.41,811.86,106.49ZM792.28,82.43a21.51,21.51,0,0,0-3.39-9.33c-1.68-2.39-3.6-3.58-5.73-3.58a4,4,0,0,0-3.55,2.12,10.83,10.83,0,0,0-1.32,5.75,9.66,9.66,0,0,0,1.47,5.07,21.27,21.27,0,0,0,4.69,5.08c3.76,3.14,6.35,5.93,7.79,8.4a16.71,16.71,0,0,1,2.17,8.63c0,4.34-1,7.8-3.07,10.34a10.07,10.07,0,0,1-8.3,3.82,8.91,8.91,0,0,1-5.54-2.09c-.75-.61-1.37-.81-1.88-.61a2.49,2.49,0,0,0-1.15,1.79l-.18.66h-1.23l-1.42-16.38h1.24a23.37,23.37,0,0,0,4,9.66q2.85,3.75,6.15,3.75A5.26,5.26,0,0,0,787.6,113a11.73,11.73,0,0,0,1.69-6.72,9.6,9.6,0,0,0-1.82-5.39,31.11,31.11,0,0,0-5.85-6.06,28.53,28.53,0,0,1-6.51-7.28A15,15,0,0,1,773,80a17.41,17.41,0,0,1,2.59-9.89,7.74,7.74,0,0,1,6.65-3.85A9.94,9.94,0,0,1,788,68.36a1.61,1.61,0,0,0,1.66.28,2.09,2.09,0,0,0,1.2-1.36l.35-1h1.24l1,16.14Zm-43,24.06V78.54c0-3.92-.26-6.42-.79-7.52s-1.79-1.73-3.75-1.91v-1.8H759.2v1.8c-2,.18-3.22.81-3.75,1.91s-.8,3.6-.8,7.52v27.95c0,3.92.27,6.42.8,7.52s1.78,1.73,3.75,1.9v1.81H744.72v-1.81c2-.17,3.22-.8,3.75-1.91S749.26,110.41,749.26,106.49Zm-33.74,0V70.54h-3.83a5.31,5.31,0,0,0-4.7,2.22q-1.5,2.23-2,7.71h-1.29l.21-6.57.22-6.59h28.24l.2,6.57.22,6.59h-1.29q-.51-5.48-2-7.71a5.31,5.31,0,0,0-4.7-2.22h-3.83v35.95c0,3.89.3,6.38.88,7.48s2,1.75,4.19,1.94v1.81H710.45v-1.81q3.31-.28,4.2-2T715.52,106.49Zm-33.56,0V78.54c0-3.92-.26-6.42-.79-7.52s-1.78-1.73-3.75-1.91v-1.8H691.9v1.8c-2,.18-3.22.81-3.75,1.91s-.79,3.6-.79,7.52v27.95c0,3.92.26,6.42.79,7.52s1.78,1.73,3.75,1.9v1.81H677.42v-1.81c2-.17,3.23-.8,3.75-1.91S682,110.41,682,106.49ZM644.75,91.71h3.35A6.78,6.78,0,0,0,654,88.86c1.34-1.89,2-4.68,2-8.35a11.46,11.46,0,0,0-2.12-7.29,7,7,0,0,0-5.78-2.68h-.39c-1.23,0-2,.27-2.4.82a7.07,7.07,0,0,0-.56,3.5Zm-5.39,14.78V78.54c0-3.89-.26-6.38-.8-7.48s-1.77-1.75-3.74-2v-1.8H648.1q6.84,0,10.38,3.5T662,81c0,4.31-1.22,7.68-3.7,10.09a12.83,12.83,0,0,1-4.91,2.92l8.64,16.46a18.72,18.72,0,0,0,2.77,4.28,4.59,4.59,0,0,0,2.84,1.12v1.81H659l-11.86-23h-2.42v14.42q0,4.14.8,5.31c.53.79,1.78,1.26,3.75,1.43v1.81H634.82v-1.81c2-.19,3.21-.84,3.74-2S639.36,110.38,639.36,106.49ZM602.9,93.8v16.45a7.19,7.19,0,0,0,.53,3.48c.35.51,1.13.77,2.38.77h.57c3.23,0,5.61-.85,7.15-2.53s2.31-4.28,2.31-7.81-.77-6-2.31-7.74-3.8-2.62-6.75-2.62Zm0-19v15.5h3.93a7.34,7.34,0,0,0,6-2.66,11,11,0,0,0,2.2-7.24,11,11,0,0,0-2.2-7.26,7.37,7.37,0,0,0-6-2.66h-1a2.78,2.78,0,0,0-2.42.84A7.11,7.11,0,0,0,602.9,74.78Zm-5.39,31.71V78.54c0-3.89-.26-6.38-.8-7.48s-1.77-1.75-3.74-2v-1.8h13.41c4.5,0,7.92,1.13,10.26,3.43s3.52,5.61,3.52,10q0,6.15-3.72,9.77a8.94,8.94,0,0,1-1.62,1.31,13.64,13.64,0,0,1,2.83,2,13,13,0,0,1,4.22,10q0,7.45-3.56,10.65t-11.93,3.19H593v-1.81c2-.19,3.22-.84,3.74-2S597.51,110.38,597.51,106.49Zm-592.45,0V78.55c0-3.92-.27-6.41-.8-7.52S2.48,69.3.51,69.13V67.32H15v1.81c-2,.17-3.22.64-3.74,1.43s-.8,2.55-.8,5.31V91.3q2.91-3.55,6.08-8c1.71-2.36,3.27-4.63,4.7-6.77,1.64-2.5,2.37-4.3,2.17-5.44s-1.32-1.79-3.41-2V67.32h13.1v1.81A9.92,9.92,0,0,0,28.89,71a23.45,23.45,0,0,0-3.81,4.91q-2.94,4.6-6.73,9.77l-2.61,3.59,13.35,21.29a22.94,22.94,0,0,0,3.22,4.28,5.16,5.16,0,0,0,2.95,1.13v1.81H20v-1.81c1.84,0,2.89-.42,3.15-1.25s-.2-2.22-1.41-4.16l-10-16.25-1.28,1.61v13.3c0,2.77.26,4.53.8,5.32S13,115.76,15,115.93v1.81H.51v-1.81c2-.17,3.22-.8,3.75-1.92S5.06,110.42,5.06,106.5Z"/></svg>