<svg width="4891" height="1786" viewBox="0 0 4891 1786" fill="none" xmlns="http://www.w3.org/2000/svg">
<path d="M316 451.764H366.08V497.392C387.224 460.667 427.288 451.764 458.449 451.764H487.384V502.956H462.9C420.611 502.956 369.418 519.649 369.418 558.6V767.822H316V451.764Z" fill="#FF0000"/>
<path d="M563.063 618.721C567.514 689.945 605.352 727.783 659.884 727.783C709.963 727.783 736.672 699.961 744.463 671.026L794.542 679.929C778.962 740.025 731.108 774.524 657.658 774.524C566.401 774.524 509.645 712.203 509.645 609.818C509.645 504.094 574.192 445.111 658.771 445.111C743.35 445.111 796.768 500.755 796.768 597.576V619.834L563.063 618.721ZM564.176 575.319H743.35C741.124 526.352 714.415 490.74 658.771 490.74C608.691 490.74 574.192 524.126 564.176 575.319Z" fill="#FF0000"/>
<path d="M1092.79 727.766C1072.76 758.927 1037.14 774.507 990.404 774.507C903.599 774.507 842.391 714.412 842.391 608.688C842.391 505.19 905.825 443.981 995.968 443.981C1034.92 443.981 1069.42 458.449 1091.68 484.045V316H1145.09V767.83H1093.9L1092.79 727.766ZM1090.56 594.221C1090.56 526.335 1048.27 492.948 993.743 492.948C933.647 492.948 894.696 537.464 894.696 609.801C894.696 677.687 930.308 727.766 992.63 727.766C1056.06 727.766 1089.45 682.138 1089.45 623.155L1090.56 594.221Z" fill="#FF0000"/>
<path d="M1180.71 896.925V844.619H1487.87V896.925H1180.71Z" fill="#FF0000"/>
<path d="M1523.48 451.789H1574.67V492.965C1595.82 461.805 1634.77 445.111 1672.61 445.111C1726.02 445.111 1762.75 468.482 1778.33 502.981C1798.36 465.143 1843.99 445.111 1886.28 445.111C1957.5 445.111 2003.13 484.062 2003.13 558.625V767.847H1949.71V566.415C1949.71 523.013 1928.57 492.965 1876.26 492.965C1827.3 492.965 1789.46 526.352 1789.46 578.657V767.847H1736.04V566.415C1736.04 523.013 1713.78 492.965 1661.48 492.965C1612.51 492.965 1575.79 526.352 1575.79 578.657V767.847H1522.37L1523.48 451.789Z" fill="#FF0000"/>
<path d="M2271.33 731.122C2251.3 756.718 2216.8 775.637 2171.17 775.637C2102.17 775.637 2058.77 740.025 2058.77 681.042C2058.77 615.382 2105.51 588.673 2178.96 586.447C2211.23 585.334 2239.06 586.447 2267.99 587.56V559.738C2267.99 512.997 2239.06 492.965 2197.88 492.965C2152.25 492.965 2131.11 518.562 2121.09 549.722L2071.01 538.593C2084.37 482.949 2127.77 445.111 2198.99 445.111C2271.33 445.111 2322.52 478.498 2322.52 556.4V767.847H2272.44L2271.33 731.122ZM2181.19 627.624C2135.56 629.85 2112.19 647.656 2112.19 679.93C2112.19 711.09 2135.56 730.009 2172.28 730.009C2225.7 730.009 2266.88 701.074 2266.88 658.785V627.624C2241.28 626.511 2211.23 626.511 2181.19 627.624Z" fill="#FF0000"/>
<path d="M2636.36 727.766C2616.33 758.927 2580.72 774.507 2533.97 774.507C2447.17 774.507 2385.96 714.412 2385.96 608.688C2385.96 505.19 2449.4 443.981 2539.54 443.981C2578.49 443.981 2612.99 458.449 2634.13 484.045V316H2687.55V767.83H2636.36V727.766ZM2634.13 594.221C2634.13 526.335 2591.84 492.948 2537.31 492.948C2477.22 492.948 2438.27 537.464 2438.27 609.801C2438.27 677.687 2473.88 727.766 2537.31 727.766C2600.75 727.766 2634.13 682.138 2634.13 623.155V594.221Z" fill="#FF0000"/>
<path d="M2724.28 896.925V844.619H3030.32V896.925H2724.28Z" fill="#FF0000"/>
<path d="M3067.05 448.415H3120.47V501.833H3173.88V555.252H3120.47V767.812H3067.05V448.415ZM3173.88 448.415H3254.01V501.833H3173.88V448.415Z" fill="white"/>
<path d="M3294.07 501.833H3347.49V714.394H3294.07V501.833ZM3533.34 501.833H3347.49V448.415H3533.34V501.833ZM3347.49 714.394H3533.34V767.812H3347.49V714.394ZM3533.34 714.394V501.833H3586.76V714.394H3533.34Z" fill="white"/>
<path d="M3663.55 316H3716.97V501.851H3770.39V555.27H3716.97V662.106H3770.39V715.525H3716.97V768.943H3663.55V316ZM3770.39 448.433H3903.93V501.851H3770.39V448.433ZM3770.39 714.412H3903.93V767.83H3770.39V714.412ZM3902.82 714.412V501.851H3956.24V714.412H3902.82Z" fill="white"/>
<path d="M4024.12 501.833H4077.54V714.394H4024.12V501.833ZM4263.39 501.833H4077.54V448.415H4263.39V501.833ZM4077.54 714.394H4263.39V767.812H4077.54V714.394ZM4263.39 714.394V501.833H4316.81V714.394H4263.39Z" fill="white"/>
<path d="M4414.75 501.843H4361.33V448.424H4414.75V368.297H4468.16V448.424H4575V501.843H4468.16V714.403H4414.75V501.843ZM4467.05 714.403H4573.89V767.822H4467.05V714.403Z" fill="white"/>
<path d="M3128.26 1195.15C3139.39 1195.15 3147.18 1192.93 3153.86 1187.36C3160.53 1182.91 3164.99 1175.12 3167.21 1165.1L3191.69 1169.56C3188.36 1184.02 3181.68 1196.27 3170.55 1204.06C3159.42 1211.85 3144.95 1216.3 3128.26 1216.3C3107.12 1216.3 3090.42 1209.62 3077.07 1196.27C3063.71 1182.91 3058.15 1163.99 3058.15 1139.51C3058.15 1115.03 3064.83 1096.11 3077.07 1082.75C3089.31 1069.4 3106 1062.72 3128.26 1062.72C3146.07 1062.72 3159.42 1067.17 3170.55 1074.96C3181.68 1082.75 3188.36 1094.99 3191.69 1109.46L3167.21 1113.91C3164.99 1103.9 3159.42 1097.22 3152.74 1092.77C3146.07 1088.32 3137.16 1086.09 3127.15 1086.09C3112.68 1086.09 3102.66 1090.54 3094.87 1100.56C3087.08 1110.57 3082.63 1123.93 3082.63 1140.62C3082.63 1157.31 3087.08 1170.67 3094.87 1180.69C3103.78 1190.7 3114.91 1195.15 3128.26 1195.15Z" fill="white"/>
<path d="M3351.95 1131.72C3351.95 1136.17 3351.95 1139.51 3351.95 1140.62C3351.95 1141.73 3351.95 1143.96 3351.95 1145.07H3240.66C3241.78 1161.77 3246.23 1174.01 3252.9 1182.91C3260.69 1191.81 3270.71 1196.27 3284.07 1196.27C3294.08 1196.27 3302.98 1194.04 3309.66 1188.48C3316.34 1184.02 3321.9 1177.35 3325.24 1168.44L3347.5 1172.9C3344.16 1186.25 3336.37 1197.38 3325.24 1205.17C3314.11 1212.96 3299.65 1217.41 3284.07 1217.41C3262.92 1217.41 3246.23 1210.73 3233.99 1197.38C3221.74 1184.02 3216.18 1165.1 3216.18 1140.62C3216.18 1117.25 3222.86 1098.33 3235.1 1083.86C3247.34 1070.51 3265.15 1062.72 3286.29 1062.72C3306.32 1062.72 3321.9 1069.4 3334.15 1081.64C3346.39 1093.88 3351.95 1110.57 3351.95 1131.72ZM3286.29 1083.86C3274.05 1083.86 3264.03 1087.2 3256.24 1094.99C3248.45 1101.67 3244 1112.8 3241.78 1126.15H3328.58C3328.58 1113.91 3324.13 1103.9 3317.45 1096.11C3309.66 1087.2 3299.65 1083.86 3286.29 1083.86Z" fill="white"/>
<path d="M3410.93 1214.07H3386.45V1066.06H3410.93V1086.09C3415.38 1078.3 3422.06 1072.74 3430.96 1069.4C3439.87 1064.95 3448.77 1062.72 3458.79 1062.72C3476.59 1062.72 3491.06 1067.17 3499.96 1077.19C3509.98 1086.09 3514.43 1099.44 3514.43 1116.14V1214.07H3489.95V1119.48C3489.95 1108.35 3486.61 1099.44 3481.04 1093.88C3474.37 1088.32 3465.46 1084.98 3454.34 1084.98C3442.09 1084.98 3432.08 1088.32 3424.29 1096.11C3416.5 1103.9 3412.05 1112.8 3412.05 1125.04V1214.07H3410.93Z" fill="white"/>
<path d="M3637.96 1190.73V1214.11H3614.59C3596.78 1214.11 3583.43 1210.77 3575.64 1202.98C3567.85 1195.19 3564.51 1181.83 3564.51 1162.91V1089.46H3538.91V1066.09H3564.51V1026.03H3590.11V1066.09H3636.85V1089.46H3590.11V1162.91C3590.11 1172.93 3592.33 1180.72 3595.67 1185.17C3600.12 1189.62 3606.8 1191.85 3615.7 1191.85H3637.96V1190.73Z" fill="white"/>
<path d="M3693.6 1214.08H3668.01V1066.07H3691.38V1087.21C3695.83 1080.53 3701.39 1074.97 3709.18 1071.63C3716.97 1068.29 3724.76 1066.07 3734.78 1066.07H3748.14V1090.55H3737.01C3724.76 1090.55 3713.64 1092.78 3705.85 1097.23C3698.06 1101.68 3693.6 1108.36 3693.6 1116.15V1214.08Z" fill="white"/>
<path d="M3889.47 1214.08H3866.1V1196.27C3860.53 1202.95 3854.97 1208.52 3846.07 1211.85C3837.16 1215.19 3829.37 1217.42 3819.36 1217.42C3802.66 1217.42 3790.42 1212.97 3780.4 1206.29C3771.5 1198.5 3765.94 1187.37 3765.94 1174.02C3765.94 1159.55 3770.39 1148.42 3780.4 1141.74C3790.42 1135.07 3803.78 1130.61 3822.69 1129.5C3827.15 1129.5 3830.48 1129.5 3834.94 1129.5C3839.39 1129.5 3849.4 1129.5 3863.87 1130.61V1118.37C3863.87 1108.36 3861.65 1100.57 3856.08 1095C3850.52 1089.44 3842.73 1087.21 3832.71 1087.21C3822.69 1087.21 3814.9 1089.44 3808.23 1093.89C3801.55 1098.34 3797.1 1105.02 3794.87 1113.92L3771.5 1109.47C3774.84 1095 3781.52 1084.99 3792.65 1077.2C3803.78 1069.41 3817.13 1066.07 3832.71 1066.07C3850.52 1066.07 3863.87 1070.52 3873.89 1079.42C3883.9 1088.32 3888.35 1101.68 3888.35 1118.37V1214.08H3889.47ZM3864.98 1162.89V1148.42C3858.31 1148.42 3851.63 1147.31 3844.95 1147.31C3838.27 1147.31 3830.48 1147.31 3823.81 1148.42C3812.68 1148.42 3804.89 1150.65 3799.32 1155.1C3793.76 1159.55 3791.53 1165.11 3791.53 1171.79C3791.53 1178.47 3793.76 1185.14 3799.32 1189.6C3804.89 1194.05 3811.57 1196.27 3819.36 1196.27C3832.71 1196.27 3842.73 1192.94 3851.63 1187.37C3861.65 1180.69 3864.98 1172.9 3864.98 1162.89Z" fill="white"/>
<path d="M3956.25 1214.09H3931.76V1002.64H3956.25V1214.09Z" fill="white"/>
<path d="M3181.68 1470.04H3158.31V1452.24C3152.74 1458.91 3147.18 1464.48 3138.28 1467.82C3129.37 1471.16 3121.58 1473.38 3111.57 1473.38C3094.87 1473.38 3082.63 1468.93 3072.62 1462.25C3063.71 1454.46 3058.15 1443.33 3058.15 1429.98C3058.15 1415.51 3062.6 1404.38 3072.62 1397.71C3081.52 1389.92 3095.99 1386.58 3114.91 1385.46C3119.36 1385.46 3122.7 1385.46 3127.15 1385.46C3131.6 1385.46 3141.61 1385.46 3156.08 1386.58V1374.34C3156.08 1364.32 3153.86 1356.53 3148.29 1350.97C3142.73 1345.4 3134.94 1343.18 3124.92 1343.18C3114.91 1343.18 3107.12 1345.4 3100.44 1349.85C3093.76 1354.3 3089.31 1360.98 3087.08 1369.88L3063.71 1365.43C3067.05 1350.97 3073.73 1340.95 3084.86 1333.16C3095.99 1325.37 3109.34 1322.03 3124.92 1322.03C3142.73 1322.03 3156.08 1326.48 3166.1 1335.38C3176.11 1344.29 3180.57 1357.64 3180.57 1374.34V1470.04H3181.68ZM3158.31 1418.85V1404.38C3151.63 1404.38 3144.95 1403.27 3138.28 1403.27C3131.6 1403.27 3123.81 1403.27 3117.13 1404.38C3106 1404.38 3098.21 1406.61 3092.65 1411.06C3087.08 1415.51 3084.86 1421.08 3084.86 1427.75C3084.86 1435.54 3087.08 1441.11 3092.65 1445.56C3098.21 1450.01 3104.89 1452.24 3112.68 1452.24C3126.03 1452.24 3136.05 1448.9 3144.95 1443.33C3153.86 1436.66 3158.31 1428.87 3158.31 1418.85Z" fill="white"/>
<path d="M3276.28 1473.37C3258.47 1473.37 3244 1470.03 3232.88 1462.24C3221.75 1454.45 3215.07 1443.32 3212.84 1428.86L3236.21 1424.41C3238.44 1433.31 3242.89 1441.1 3249.57 1445.55C3256.25 1450 3265.15 1452.23 3276.28 1452.23C3287.41 1452.23 3296.31 1450 3301.87 1446.66C3307.44 1443.32 3310.78 1437.76 3310.78 1431.08C3310.78 1424.41 3308.55 1419.95 3304.1 1416.62C3299.65 1413.28 3291.86 1411.05 3281.84 1408.83L3262.92 1405.49C3247.34 1403.26 3236.21 1397.7 3229.54 1391.02C3222.86 1384.34 3218.41 1375.44 3218.41 1363.2C3218.41 1349.84 3223.97 1339.83 3233.99 1330.92C3244 1323.13 3258.47 1318.68 3276.28 1318.68C3292.97 1318.68 3306.33 1322.02 3316.34 1329.81C3327.47 1337.6 3333.04 1347.62 3335.26 1360.97L3313 1365.42C3310.78 1356.52 3306.33 1349.84 3299.65 1345.39C3292.97 1340.94 3285.18 1338.71 3275.17 1338.71C3265.15 1338.71 3257.36 1340.94 3251.79 1344.28C3246.23 1347.62 3242.89 1353.18 3242.89 1359.86C3242.89 1365.42 3245.12 1369.87 3248.46 1373.21C3252.91 1376.55 3259.58 1378.78 3270.71 1381L3289.63 1384.34C3305.21 1387.68 3317.45 1392.13 3324.13 1398.81C3331.92 1405.49 3335.26 1415.5 3335.26 1427.74C3335.26 1441.1 3329.7 1452.23 3319.68 1460.02C3309.66 1467.81 3295.2 1473.37 3276.28 1473.37Z" fill="white"/>
<path d="M3383.12 1295.34C3378.66 1295.34 3374.21 1294.22 3370.87 1290.89C3367.53 1287.55 3366.42 1284.21 3366.42 1278.64C3366.42 1274.19 3367.53 1269.74 3370.87 1266.4C3374.21 1263.06 3377.55 1261.95 3383.12 1261.95C3387.57 1261.95 3392.02 1263.06 3395.36 1266.4C3398.7 1269.74 3399.81 1273.08 3399.81 1278.64C3399.81 1283.1 3398.7 1287.55 3395.36 1290.89C3392.02 1293.11 3387.57 1295.34 3383.12 1295.34ZM3395.36 1470.06H3370.87V1322.05H3395.36V1470.06Z" fill="white"/>
<path d="M3551.15 1470.04H3527.78V1452.24C3522.22 1458.91 3516.66 1464.48 3507.75 1467.82C3498.85 1471.16 3491.06 1473.38 3481.04 1473.38C3464.35 1473.38 3452.11 1468.93 3442.09 1462.25C3433.19 1454.46 3427.62 1443.33 3427.62 1429.98C3427.62 1415.51 3432.08 1404.38 3442.09 1397.71C3451 1389.92 3465.46 1386.58 3484.38 1385.46C3488.83 1385.46 3492.17 1385.46 3496.62 1385.46C3501.08 1385.46 3511.09 1385.46 3525.56 1386.58V1374.34C3525.56 1364.32 3523.33 1356.53 3517.77 1350.97C3512.2 1345.4 3504.41 1343.18 3494.4 1343.18C3484.38 1343.18 3476.59 1345.4 3469.91 1349.85C3463.24 1354.3 3458.79 1360.98 3456.56 1369.88L3433.19 1365.43C3436.53 1350.97 3443.21 1340.95 3454.33 1333.16C3465.46 1325.37 3478.82 1322.03 3494.4 1322.03C3512.2 1322.03 3525.56 1326.48 3535.57 1335.38C3545.59 1344.29 3550.04 1357.64 3550.04 1374.34V1470.04H3551.15ZM3527.78 1418.85V1404.38C3521.11 1404.38 3514.43 1403.27 3507.75 1403.27C3501.08 1403.27 3493.28 1403.27 3486.61 1404.38C3475.48 1404.38 3467.69 1406.61 3462.12 1411.06C3456.56 1415.51 3454.33 1421.08 3454.33 1427.75C3454.33 1435.54 3456.56 1441.11 3462.12 1445.56C3467.69 1450.01 3474.37 1452.24 3482.16 1452.24C3495.51 1452.24 3505.53 1448.9 3514.43 1443.33C3523.33 1436.66 3527.78 1428.87 3527.78 1418.85Z" fill="white"/>
</svg>
