<svg width="884" height="179" viewBox="0 0 884 179" fill="none" xmlns="http://www.w3.org/2000/svg">
<path d="M9.1 140V46.4H26.78V89.56L62.4 46.4H83.98L44.85 92.55L86.45 140H64.09L26.78 97.36V140H9.1ZM89.0551 140L117.655 46.4H144.045L172.645 140H154.445L128.965 57.45H132.345L107.255 140H89.0551ZM106.215 120.5V103.99H155.615V120.5H106.215ZM181.695 140V137.79L226.155 62.91H185.595V46.4H257.095V48.61L212.895 123.36H255.795V140H181.695Z" fill="#EE252C"/>
<path d="M272.655 140V46.4H301.97C302.836 46.4 304.44 46.4217 306.78 46.465C309.163 46.5083 311.438 46.6817 313.605 46.985C320.928 47.895 327.081 50.5167 332.065 54.85C337.091 59.1833 340.883 64.6867 343.44 71.36C345.996 77.99 347.275 85.27 347.275 93.2C347.275 101.173 345.996 108.497 343.44 115.17C340.883 121.8 337.091 127.282 332.065 131.615C327.081 135.905 320.928 138.505 313.605 139.415C311.438 139.718 309.163 139.892 306.78 139.935C304.44 139.978 302.836 140 301.97 140H272.655ZM286.565 127.065H301.97C303.443 127.065 305.198 127.022 307.235 126.935C309.271 126.848 311.07 126.675 312.63 126.415C317.396 125.505 321.253 123.447 324.2 120.24C327.19 116.99 329.378 113.003 330.765 108.28C332.151 103.557 332.845 98.53 332.845 93.2C332.845 87.6967 332.13 82.605 330.7 77.925C329.27 73.2017 327.06 69.2583 324.07 66.095C321.123 62.8883 317.31 60.8517 312.63 59.985C311.07 59.6817 309.25 59.5083 307.17 59.465C305.133 59.3783 303.4 59.335 301.97 59.335H286.565V127.065ZM362.411 140V46.4H422.211V59.205H375.996V85.465H414.411V98.27H375.996V127.195H422.211V140H362.411ZM459.791 140L429.371 46.4H443.476L469.411 126.285L495.671 46.4H509.776L479.356 140H459.791ZM727.782 140V46.4H765.612C766.522 46.4 767.648 46.4433 768.992 46.53C770.335 46.5733 771.613 46.7033 772.827 46.92C778.027 47.7433 782.36 49.52 785.827 52.25C789.337 54.98 791.958 58.425 793.692 62.585C795.425 66.745 796.292 71.3383 796.292 76.365C796.292 81.435 795.425 86.05 793.692 90.21C791.958 94.37 789.337 97.815 785.827 100.545C782.36 103.275 778.027 105.052 772.827 105.875C771.613 106.048 770.313 106.178 768.927 106.265C767.583 106.352 766.478 106.395 765.612 106.395H741.367V140H727.782ZM741.367 93.525H765.092C765.958 93.525 766.912 93.4817 767.952 93.395C769.035 93.3083 770.053 93.1567 771.007 92.94C773.78 92.29 776.012 91.0983 777.702 89.365C779.392 87.5883 780.605 85.5517 781.342 83.255C782.078 80.9583 782.447 78.6617 782.447 76.365C782.447 74.0683 782.078 71.7933 781.342 69.54C780.605 67.2433 779.392 65.2283 777.702 63.495C776.012 61.7183 773.78 60.505 771.007 59.855C770.053 59.595 769.035 59.4217 767.952 59.335C766.912 59.2483 765.958 59.205 765.092 59.205H741.367V93.525ZM843.216 141.95C836.499 141.95 830.432 140.802 825.016 138.505C819.642 136.165 815.201 132.85 811.691 128.56C808.224 124.227 805.971 119.092 804.931 113.155L819.101 111.01C820.531 116.73 823.521 121.193 828.071 124.4C832.621 127.563 837.929 129.145 843.996 129.145C847.766 129.145 851.232 128.56 854.396 127.39C857.559 126.177 860.094 124.465 862.001 122.255C863.951 120.002 864.926 117.315 864.926 114.195C864.926 112.505 864.622 111.01 864.016 109.71C863.452 108.41 862.651 107.283 861.611 106.33C860.614 105.333 859.379 104.488 857.906 103.795C856.476 103.058 854.894 102.43 853.161 101.91L829.176 94.825C826.836 94.1317 824.452 93.2433 822.026 92.16C819.599 91.0333 817.367 89.5817 815.331 87.805C813.337 85.985 811.712 83.7533 810.456 81.11C809.199 78.4233 808.571 75.1733 808.571 71.36C808.571 65.5967 810.044 60.7217 812.991 56.735C815.981 52.705 820.011 49.6717 825.081 47.635C830.151 45.555 835.827 44.515 842.111 44.515C848.437 44.6017 854.092 45.7283 859.076 47.895C864.102 50.0617 868.262 53.1817 871.556 57.255C874.892 61.285 877.189 66.1817 878.446 71.945L863.886 74.415C863.236 70.905 861.849 67.8933 859.726 65.38C857.602 62.8233 855.002 60.8733 851.926 59.53C848.849 58.1433 845.512 57.4283 841.916 57.385C838.449 57.2983 835.264 57.8183 832.361 58.945C829.501 60.0717 827.204 61.6533 825.471 63.69C823.781 65.7267 822.936 68.0667 822.936 70.71C822.936 73.31 823.694 75.4117 825.211 77.015C826.727 78.6183 828.591 79.8967 830.801 80.85C833.054 81.76 835.286 82.5183 837.496 83.125L854.786 88C856.952 88.6067 859.401 89.43 862.131 90.47C864.904 91.4667 867.569 92.875 870.126 94.695C872.726 96.515 874.871 98.9417 876.561 101.975C878.251 104.965 879.096 108.735 879.096 113.285C879.096 118.008 878.142 122.168 876.236 125.765C874.329 129.318 871.707 132.308 868.371 134.735C865.077 137.118 861.264 138.917 856.931 140.13C852.597 141.343 848.026 141.95 843.216 141.95Z" fill="white"/>
<path fill-rule="evenodd" clip-rule="evenodd" d="M612.984 162.008L612.937 141.114C591.798 140.604 573.775 129.044 565.502 110.414C562.598 103.873 560.884 97.0599 560.876 89.0045C560.848 60.3304 583.028 37.7418 613.016 36.843L612.995 15.9922H607.438C606.385 14.0039 599.172 6.09223 597.46 4.06779L594.227 0C591.016 0.0714893 581.019 3.76186 577.735 5.06352C572.4 7.17837 568.049 9.99483 563.285 12.5156C563.437 14.336 563.819 17.3191 563.958 19.144C564.14 21.5444 564.104 23.9396 564.424 26.3265L565.047 33.0283C564.92 34.7806 564.022 34.5385 561.46 37.1119C557.353 41.2355 559.481 41.5555 550.821 40.6239C546.461 40.1549 541.319 39.6328 536.516 39.6328C532.678 45.3631 528.3 54.6277 526.207 61.656C525.56 63.8273 524.05 67.9639 524 70.2265C525.862 71.4737 527.743 73.2788 529.481 74.8274L532.1 77.0756C542.177 85.6006 539.992 81.6736 539.992 94.5625L535.908 97.779C534.699 98.9032 533.226 100.219 531.997 101.169L526.174 106.123C525.302 106.961 524.942 107.143 524 107.773C524.113 112.834 530.37 127.105 532.575 131.53L536.516 138.715L553.554 137.327C555.218 137.284 555.617 136.847 557.027 136.954C559.01 137.106 559.951 139.337 561.104 140.549C561.966 141.455 564.527 143.272 564.854 144.101C565.185 144.94 564.761 149.829 564.655 151.21C564.305 155.772 563.633 160.556 563.633 165.484C570.425 170.032 581.093 174.767 589.432 176.884C595.271 178.367 592.722 179.615 599.893 171.151L605.995 164.042C608.159 161.298 608.484 162.008 612.984 162.008Z" fill="#862226"/>
<path fill-rule="evenodd" clip-rule="evenodd" d="M612.995 15.9922L613.016 36.843C662.615 38.254 680.8 95.1882 649.898 125.898C642.057 133.691 629.242 140.749 612.937 141.114L612.984 162.008C617.232 162.008 617.756 161.288 619.852 163.847C620.682 164.861 631.489 177.836 632.121 178H632.483C634.938 177.727 646.789 173.554 648.233 172.905C653.208 170.672 658.146 168.311 662.367 165.484C662.367 161.38 660.769 145.892 660.996 144.654C661.199 143.552 661.874 143.092 662.66 142.485C668.789 137.755 665.062 135.926 675.431 137.471C679.664 138.101 686.075 137.921 689.484 138.715C689.77 137.645 690.721 136.37 691.333 135.348C692.134 134.011 692.636 133.115 693.309 131.762C694.538 129.29 695.646 127.09 696.795 124.471C697.894 121.964 701.937 110.621 702 107.773L697.932 104.54C696.598 103.412 695.372 102.178 694.055 101.117C692.65 99.985 687.131 94.8624 686.008 94.5625C686.008 83.3241 684.151 84.8837 691.074 79.465L694.996 76.0857C696.039 75.2454 701.843 70.4873 702 69.879V69.3287C701.669 66.4725 697.686 55.6257 696.937 53.7354C695.177 49.295 691.939 43.2985 689.484 39.6328C685.366 39.6328 669.893 41.2317 668.651 41.0067C667.312 40.7644 667.304 40.1632 666.588 39.2362C659.769 30.4002 660.25 42.1309 662.715 12.5156C655.867 8.89201 648.819 4.5238 640.666 2.23207C638.344 1.57933 634.122 0.0523029 631.774 0L618.563 15.9922H612.995Z" fill="#EE252C"/>
<path fill-rule="evenodd" clip-rule="evenodd" d="M613.06 39.8514C640.152 39.8514 662.123 61.8224 662.123 88.915C662.123 116.007 640.152 137.978 613.06 137.978C585.967 137.978 563.996 116.007 563.996 88.915C563.996 61.8224 585.967 39.8514 613.06 39.8514ZM613.06 37.8589C641.252 37.8589 664.116 60.7223 664.116 88.915C664.116 117.108 641.252 139.971 613.06 139.971C584.867 139.971 562.003 117.108 562.003 88.915C562.003 60.7223 584.867 37.8589 613.06 37.8589Z" fill="white"/>
<path fill-rule="evenodd" clip-rule="evenodd" d="M613.06 47.6728C635.833 47.6728 654.302 66.1415 654.302 88.915C654.302 111.689 635.833 130.157 613.06 130.157C590.286 130.157 571.817 111.689 571.817 88.915C571.817 66.1415 590.286 47.6728 613.06 47.6728ZM613.06 41.5516C639.213 41.5516 660.423 62.7615 660.423 88.9151C660.423 115.069 639.213 136.279 613.06 136.279C586.906 136.279 565.696 115.069 565.696 88.9151C565.696 62.7615 586.906 41.5516 613.06 41.5516Z" fill="white"/>
<path fill-rule="evenodd" clip-rule="evenodd" d="M635.067 93.8186L631.123 89.875L626.335 94.6632L630.278 98.6068L632.824 99.2412L642.485 108.903L643.02 110.627L644.213 111.821C645.392 110.212 646.43 108.533 647.328 106.801L646.594 106.067L645.363 106.025L635.701 96.3637L635.067 93.8186ZM632.903 118.485L623.241 108.824L622.607 106.278L618.663 102.335L613.875 107.123L617.819 111.067L620.364 111.701L630.025 121.362L630.067 122.594L630.802 123.329C632.534 122.43 634.212 121.391 635.821 120.213L634.627 119.02L632.903 118.485ZM636.79 116.857L638.083 118.151L642.15 114.083L640.857 112.79L639.133 112.255L629.471 102.594L628.837 100.049L624.893 96.1049L620.105 100.893L624.048 104.837L626.594 105.471L636.255 115.133L636.79 116.857V116.857ZM608.181 66.9332L612.125 70.8769L607.337 75.665L603.393 71.7214L602.759 69.1762L593.097 59.5146L591.373 58.9798L590.18 57.7864C591.788 56.6081 593.467 55.5702 595.199 54.6715L595.933 55.4056L595.975 56.6371L605.636 66.2988L608.181 66.9332ZM583.515 69.0971L593.176 78.7585L595.722 79.3929L599.665 83.3366L594.877 88.125L590.933 84.1813L590.299 81.636L580.638 71.9746L579.406 71.933L578.671 71.1985C579.57 69.466 580.609 67.7874 581.787 66.1791L582.98 67.3726L583.515 69.0971ZM585.143 65.2099L583.85 63.9168L587.917 59.8496L589.21 61.1425L589.745 62.8671L599.406 72.5285L601.951 73.1631L605.895 77.1066L601.107 81.895L597.163 77.9514L596.529 75.406L586.867 65.7446L585.143 65.2099ZM590.933 93.8186L594.877 89.875L599.665 94.6632L595.722 98.6068L593.176 99.2412L583.515 108.903L582.98 110.627L581.787 111.821C580.609 110.212 579.57 108.533 578.672 106.801L579.406 106.067L580.638 106.025L590.299 96.3637L590.933 93.8186ZM593.097 118.485L602.758 108.824L603.393 106.278L607.337 102.335L612.125 107.123L608.181 111.067L605.636 111.701L595.975 121.362L595.933 122.594L595.199 123.329C593.466 122.43 591.787 121.391 590.179 120.213L591.373 119.02L593.097 118.485ZM589.21 116.857L587.917 118.151L583.85 114.083L585.143 112.79L586.867 112.255L596.529 102.594L597.163 100.049L601.107 96.1049L605.895 100.893L601.951 104.837L599.406 105.471L589.745 115.133L589.21 116.857L589.21 116.857ZM617.819 66.9332L613.875 70.8769L618.664 75.665L622.607 71.7214L623.242 69.1762L632.903 59.5146L634.627 58.9798L635.821 57.7864C634.213 56.6081 632.534 55.5702 630.801 54.6715L630.067 55.4056L630.025 56.6371L620.364 66.2988L617.819 66.9332ZM642.485 69.0971L632.824 78.7585L630.279 79.3929L626.335 83.3366L631.123 88.125L635.067 84.1813L635.701 81.636L645.363 71.9746L646.594 71.933L647.329 71.1985C646.43 69.466 645.391 67.7874 644.213 66.1791L643.02 67.3726L642.485 69.0971H642.485ZM640.857 65.2099L642.15 63.9168L638.083 59.8496L636.79 61.1425L636.255 62.8671L626.594 72.5285L624.049 73.1631L620.105 77.1066L624.893 81.895L628.837 77.9514L629.471 75.406L639.133 65.7446L640.857 65.2099Z" fill="white"/>
<path fill-rule="evenodd" clip-rule="evenodd" d="M620.634 88.9994L625.399 84.2346L630.164 89.0002L625.399 93.7652L620.634 88.9996V88.9994ZM614.434 95.1991L619.199 90.4341L623.965 95.1996L619.2 99.9648L614.434 95.1991ZM608.235 101.399L613 96.6339L617.765 101.399L613 106.164L608.235 101.399ZM602.035 95.1995L606.8 90.4344L611.566 95.1999L606.801 99.9649L602.035 95.1995ZM608.235 88.9996L613 84.2345L617.765 89.0002L613 93.7652L608.235 88.9996ZM614.434 82.8001L619.199 78.035L623.965 82.8007L619.2 87.5657L614.434 82.8001ZM608.235 76.6009L613 71.8358L617.766 76.6014L613.001 81.3664L608.235 76.6009ZM602.036 82.8004L606.801 78.0353L611.566 82.8009L606.801 87.566L602.036 82.8004ZM595.836 89L600.601 84.2349L605.366 89.0006L600.601 93.7654L595.836 89H595.836Z" fill="white"/>
</svg>
