<svg width="427" height="102" viewBox="0 0 427 102" fill="none" xmlns="http://www.w3.org/2000/svg">
<path d="M92.1004 84H88.9004C88.6004 84 88.1004 84 87.5004 84C85.7004 84 84.3004 84 83.5004 84V84C81.1822 84 78.8526 83.7153 76.6342 83.0427C76.5858 83.028 76.541 83.0139 76.5 83.0002C75.9 82.8002 75 82.5002 74.4004 82.2C74.2781 82.1388 74.1475 82.0734 74.0111 82.0039C72.8373 81.4061 71.8572 80.5003 71 79.5002V79.5002C70.5 78.8002 70.0609 77.6092 70 77C69.9 76 69.9004 75.4 69.9004 74.1C70 72.5 70.0004 71.4 70.3004 69.7C70.6004 68.1 71.0004 66.2 71.5004 64.2L73.0004 58.3C73.8004 55.1 74.8004 52.3 76.0004 50.1C77.2004 47.9 78.4004 46.2 79.7004 44.9C81.0004 43.7 82.8004 42.7 85.0004 42.1C87.2004 41.5 89.3004 41.1 91.3004 40.9C93.3004 40.7 96.0004 40.7 99.4004 40.7H104.3C105.72 40.7 106.681 40.8 107.8 40.8C108.939 40.8 109.767 40.8 110.9 40.8C112.034 40.8 112 40.8 113.2 40.8C114.5 40.8 114.5 40.8 115.8 40.8C117.244 40.8 118 40.8 118.5 40.8C119.157 39.5525 119.693 38.1985 119.757 36.7901C119.83 35.1908 119.544 34.0152 118.9 33.3C118 32.3 116.1 31.8 113.2 31.8L86.2004 32L89.5 18.0001C99 18 110 18 122 18C130.1 18 135.4 18.7 138.3 21.5C141.2 24.3 141.7 29.6 139.7 37.4L128.5 84H108.6M115.7 53.3C110.9 53.3 106.9 53.3 103.9 53.3H100C97.6004 53.3 95.9004 53.6 94.8004 54.3C93.8004 55 93.0004 56.5 92.4004 58.9L91.0004 64.5C90.5004 66.5 90.6004 68 91.4004 68.9C92.2004 69.8 93.7004 70.2 95.9004 70.2H98.6004C99.7004 70.2 101 70.2 102.3 70.2C103.5 70.2 105.319 70.2 107.6 70.2C110 70.2 111.37 70.2 112.5 70.2L115.7 53.3Z" fill="white"/>
<path d="M151.5 33.2999L155.4 17.8999H211.9L208.4 32.2999L168 68.0999H199.4L195.5 84H137L140.5 69.0999L181.8 33.2999H151.5Z" fill="white"/>
<path d="M335.999 68.6999L332.299 84C321.5 84 309.8 84 297.5 84C289.5 84 284.299 82.8999 281.499 79.9999C278.599 77.0999 278.099 71.7999 279.999 63.8999L286.199 38.6999C287.699 32.5999 290.999 27.5999 296.099 23.6999C301.199 19.7999 307.399 17.8999 314.699 17.8999H329.599C336.999 17.8999 342.199 19.7999 345.199 23.6999C348.199 27.5999 348.899 32.5999 347.399 38.6999L342.799 57.2999C342.699 57.7999 342.599 58.0999 342.599 58.2999C342.499 58.4999 342.399 58.5999 342.199 58.7999C341.999 58.8999 341.699 58.9999 341.299 58.9999H301.299L300.299 62.8999C299.599 65.4999 299.599 67.0999 300.199 67.7999C300.799 68.4999 302.399 68.8999 304.999 68.8999H335.999V68.6999ZM326.999 45.6999L328.199 40.5999C328.999 37.3999 328.999 35.1999 328.099 34.0999C327.199 32.9999 325.399 32.4999 322.699 32.4999H315.699C312.899 32.4999 310.699 32.9999 309.199 34.0999C307.699 35.1999 306.499 37.3999 305.699 40.6999L304.299 46.0999L326.999 45.6999Z" fill="white"/>
<path d="M427 17.8999L394.3 81.4999C393.5 83.1999 392.3 83.9999 390.8 83.9999H360.2C359.3 83.9999 358.7 83.7999 358.4 83.4999C358.1 83.1999 357.9 82.4999 357.8 81.4999L356.4 17.8999H379L377.9 67.0999H381.3L404.4 17.8999H427Z" fill="white"/>
<path d="M229.17 84H226.27C218.47 84 213.17 83 210.47 80.1C207.67 77.2 207.27 71.9 209.17 64.2L215.77 37.3C217.67 29.6 220.67 24.3 224.87 21.5C229.07 18.7 234.97 18 242.77 18H245.67C249.77 18 254.5 18 262.5 18L266.692 0H286.07L265.5 84H255.635H245.77M238.183 68.2C239.283 68.2 239.307 68.2 240.675 68.2C242.043 68.2 243 68.2 245.47 68.2C247.761 68.2 249.3 68.2 250.27 68.2L258.5 33.8C257.63 33.8 255.132 33.8 253.07 33.8C250.924 33.8 249.5 33.8 248.27 33.8C246.938 33.8 245.87 33.8 244.67 33.8H242.47C240.27 33.8 238.57 34.2 237.47 35.1C236.27 36 235.47 37.5 234.87 39.6L229.17 62.5C228.67 64.5 228.77 66 229.47 66.9C230.27 67.8 231.67 68.2 233.87 68.2H236.37H238.183Z" fill="white"/>
<path d="M53.8702 18H73.6702L53.0702 101.9H34.1746L38 84.0996C27.7 84.0996 25.1702 84.0996 21.1702 84.0996H18.2702C10.4702 84.0996 5.17022 83 2.47022 80.1C-0.32978 77.2 -0.72978 71.9 1.17022 64.2L7.77022 37.3C9.67022 29.6 12.6702 24.3 16.8702 21.5C21.0702 18.7 26.9702 18 34.7702 18H37.6702M42.1702 68L50 33.7C49.0298 33.7 47.3404 33.7 45.1702 33.7C43 33.7 41.5 33.7 40.3702 33.7C39 33.7 37.9702 33.7 36.7702 33.7H34.5702C32.3702 33.7 30.6702 34.1 29.5702 35C28.3702 35.9 27.5702 37.4 26.9702 39.5L21.2702 62.4C20.7702 64.5 20.8702 66 21.5702 66.8C22.3702 67.6 23.7702 68 25.9702 68H28.1702C29.2702 68 30.5 68 31.9702 68C33.4404 68 35 68 37.1702 68C39.5 68 41 68 42.1702 68Z" fill="white"/>
</svg>
